# xmcd
#
# Track frame offsets:
#	150
#	16650
#	31950
#	44500
#	56500
#	76950
#	98725
#	119300
#	137475
#	161225
#	178075
#	200325
#	215975
#
# Disc length: 3209 seconds
#
# Revision: 0
# Processed by: cddbd v1.5.2PL0 Copyright (c) Steve Scherf et al.
# Submitted via: EasyCDDAExtractor 16.0.9.1
#
DISCID=b00c870d
DTITLE=陳果 - 此情可待
DYEAR=2012
DGENRE=Pop
TTITLE0=在水中央
TTITLE1=誰能明白我
TTITLE2=此情可待
TTITLE3=一個人
TTITLE4=每一個晚上
TTITLE5=每夜唱不停
TTITLE6=日落日出
TTITLE7=石像
TTITLE8=莫再悲
TTITLE9=星光的背影
TTITLE10=追憶
TTITLE11=最愛是誰
TTITLE12=千億個夜晚
EXTD=
EXTT0=
EXTT1=
EXTT2=
EXTT3=
EXTT4=
EXTT5=
EXTT6=
EXTT7=
EXTT8=
EXTT9=
EXTT10=
EXTT11=
EXTT12=
PLAYORDER=
